<svg xmlns="http://www.w3.org/2000/svg" viewBox="0 0 600 600">
  <!-- Definitions -->
  <defs>
    <!-- Gradients -->
    <linearGradient id="mainGradient" x1="0%" y1="0%" x2="100%" y2="100%">
      <stop offset="0%" stop-color="#3A1C71" />
      <stop offset="50%" stop-color="#D76D77" />
      <stop offset="100%" stop-color="#FFAF7B" />
    </linearGradient>
    
    <linearGradient id="accentGradient" x1="0%" y1="100%" x2="100%" y2="0%">
      <stop offset="0%" stop-color="#3A1C71" />
      <stop offset="100%" stop-color="#D76D77" />
    </linearGradient>
    
    <!-- Filters -->
    <filter id="glow" x="-20%" y="-20%" width="140%" height="140%">
      <feGaussianBlur stdDeviation="5" result="blur" />
      <feComposite in="SourceGraphic" in2="blur" operator="over" />
    </filter>
    
    <filter id="innerShadow" x="-50%" y="-50%" width="200%" height="200%">
      <feGaussianBlur in="SourceAlpha" stdDeviation="4" result="blur" />
      <feOffset dx="0" dy="4" />
      <feComposite in2="SourceAlpha" operator="arithmetic" k2="-1" k3="1" result="shadowDiff" />
      <feFlood flood-color="#000" flood-opacity="0.3" result="color" />
      <feComposite in="color" in2="shadowDiff" operator="in" result="shadow" />
      <feComposite in="shadow" in2="SourceGraphic" operator="over" />
    </filter>
    
    <clipPath id="hexClip">
      <path d="M300,150 L450,225 L450,375 L300,450 L150,375 L150,225 Z" />
    </clipPath>
  </defs>
  
  <!-- Background Elements -->
  <g opacity="0.15">
    <circle cx="300" cy="300" r="250" fill="#3A1C71" />
    <circle cx="300" cy="300" r="200" fill="#D76D77" />
    <circle cx="300" cy="300" r="150" fill="#FFAF7B" />
  </g>
  
  <!-- Main Logo Elements -->
  <g filter="url(#glow)">
    <!-- Hexagon Base -->
    <path d="M300,150 L450,225 L450,375 L300,450 L150,375 L150,225 Z" 
          fill="none" stroke="url(#mainGradient)" stroke-width="6" />
    
    <!-- Interior Design -->
    <g clip-path="url(#hexClip)">
      <!-- Abstract Symbol -->
      <g transform="translate(300, 300)">
        <!-- Main Symbol -->
        <path d="M0,-120 C60,-100 100,-60 120,0 C100,60 60,100 0,120 C-60,100 -100,60 -120,0 C-100,-60 -60,-100 0,-120 Z" 
              fill="none" stroke="url(#mainGradient)" stroke-width="8" stroke-linejoin="round" />
        
        <!-- Inner Elements -->
        <path d="M0,-60 C30,-50 50,-30 60,0 C50,30 30,50 0,60 C-30,50 -50,30 -60,0 C-50,-30 -30,-50 0,-60 Z" 
              fill="none" stroke="url(#accentGradient)" stroke-width="3" />
        
        <!-- Center Element -->
        <circle cx="0" cy="0" r="15" fill="url(#accentGradient)" />
        
        <!-- Connecting Lines -->
        <line x1="0" y1="-60" x2="0" y2="-120" stroke="url(#accentGradient)" stroke-width="3" />
        <line x1="0" y1="60" x2="0" y2="120" stroke="url(#accentGradient)" stroke-width="3" />
        <line x1="-60" y1="0" x2="-120" y2="0" stroke="url(#accentGradient)" stroke-width="3" />
        <line x1="60" y1="0" x2="120" y2="0" stroke="url(#accentGradient)" stroke-width="3" />
        
        <!-- Decorative Elements -->
        <circle cx="0" cy="-60" r="8" fill="url(#mainGradient)" />
        <circle cx="0" cy="60" r="8" fill="url(#mainGradient)" />
        <circle cx="-60" cy="0" r="8" fill="url(#mainGradient)" />
        <circle cx="60" cy="0" r="8" fill="url(#mainGradient)" />
      </g>
    </g>
  </g>
  
  <!-- Initial Letters -->
  <g transform="translate(300, 490)" filter="url(#innerShadow)">
    <text font-family="Arial, sans-serif" font-size="40" font-weight="bold" 
          text-anchor="middle" fill="url(#mainGradient)">
      IB
    </text>
  </g>
</svg>